<svg width="174" height="32" viewBox="0 0 174 32" fill="none" xmlns="http://www.w3.org/2000/svg">
<path fill-rule="evenodd" clip-rule="evenodd" d="M70.9943 21.7997C67.7983 21.7997 65.1982 19.1987 65.1982 16V11.2C65.1974 10.6168 64.9656 10.0578 64.5535 9.64542C64.1414 9.23306 63.5827 9.00104 62.9999 9.00025H62V7H62.9999C65.3129 7 67.1972 8.88475 67.1972 11.2V16C67.198 17.0075 67.5983 17.9735 68.3102 18.686C69.0221 19.3985 69.9875 19.7993 70.9943 19.8002C72.0013 19.7995 72.9669 19.3988 73.6789 18.6863C74.391 17.9738 74.7914 17.0076 74.7922 16V11.2C74.7922 8.88475 76.6758 7 78.9895 7H79.9887V9.00025H78.9895C78.4066 9.00085 77.8477 9.23277 77.4355 9.64515C77.0232 10.0575 76.7912 10.6167 76.7904 11.2V16C76.7904 19.1987 74.1911 21.7997 70.9943 21.7997ZM79.2931 10.2003H79.9887V16C79.9887 20.9635 75.954 25 70.9943 25C66.034 25 62 20.9635 62 16V10.2003H62.6956C63.4226 10.2003 64.0117 10.789 64.0117 11.5165V12.5838H63.999V16C63.999 19.861 67.1358 22.9998 70.9943 22.9998C74.8529 22.9998 77.9897 19.861 77.9897 16V12.5838H77.9769V11.5165C77.9769 10.789 78.5653 10.2003 79.2931 10.2003Z" fill="url(#paint0_linear_540_3211)"/>
<path fill-rule="evenodd" clip-rule="evenodd" d="M70.9943 21.7997C67.7983 21.7997 65.1982 19.1987 65.1982 16V11.2C65.1974 10.6168 64.9656 10.0578 64.5535 9.64542C64.1414 9.23306 63.5827 9.00104 62.9999 9.00025H62V7H62.9999C65.3129 7 67.1972 8.88475 67.1972 11.2V16C67.198 17.0075 67.5983 17.9735 68.3102 18.686C69.0221 19.3985 69.9875 19.7993 70.9943 19.8002C72.0013 19.7995 72.9669 19.3988 73.6789 18.6863C74.391 17.9738 74.7914 17.0076 74.7922 16V11.2C74.7922 8.88475 76.6758 7 78.9895 7H79.9887V9.00025H78.9895C78.4066 9.00085 77.8477 9.23277 77.4355 9.64515C77.0232 10.0575 76.7912 10.6167 76.7904 11.2V16C76.7904 19.1987 74.1911 21.7997 70.9943 21.7997ZM79.2931 10.2003H79.9887V16C79.9887 20.9635 75.954 25 70.9943 25C66.034 25 62 20.9635 62 16V10.2003H62.6956C63.4226 10.2003 64.0117 10.789 64.0117 11.5165V12.5838H63.999V16C63.999 19.861 67.1358 22.9998 70.9943 22.9998C74.8529 22.9998 77.9897 19.861 77.9897 16V12.5838H77.9769V11.5165C77.9769 10.789 78.5653 10.2003 79.2931 10.2003Z" fill="url(#paint1_linear_540_3211)"/>
<path fill-rule="evenodd" clip-rule="evenodd" d="M88.0156 16.1475V9.73871H91.2686V15.9802C91.2686 17.4562 92.1905 18.5137 93.4977 18.5137C94.8063 18.5137 95.7283 17.4562 95.7283 15.9802V9.73871H98.9812V16.1482C98.9812 19.2682 96.7176 21.4657 93.4977 21.4657C90.2792 21.4657 88.0156 19.2682 88.0156 16.1482V16.1475ZM99.9991 19.5195L101.81 17.355C102.984 18.2775 104.258 18.765 105.616 18.765C106.505 18.765 106.974 18.462 106.974 17.958C106.974 17.406 106.572 17.322 104.979 16.953C102.48 16.3815 100.552 15.7275 100.552 13.329C100.552 11.0295 102.363 9.53696 105.096 9.53696C107.091 9.53696 108.65 10.074 109.926 11.097L108.299 13.395C107.226 12.624 106.052 12.2385 105.012 12.2385C104.225 12.2385 103.84 12.5565 103.84 12.993C103.84 13.581 104.241 13.7655 105.884 14.1165C108.566 14.688 110.244 15.4095 110.244 17.607C110.244 20.04 108.382 21.465 105.499 21.465C103.42 21.465 101.458 20.811 99.9991 19.5195ZM114.952 12.6412V13.9327H120.436V16.8352H114.952V18.3622H120.972V21.2647H111.699V9.73871H120.972V12.6412H114.952ZM125.863 14.8387H127.858C128.63 14.8387 129.183 14.3857 129.183 13.7647C129.183 13.1437 128.63 12.6907 127.858 12.6907H125.863V14.8387ZM129.3 21.2647L126.869 17.7907H125.863V21.2647H122.61V9.73871H128.127C130.708 9.73871 132.537 11.3992 132.537 13.7647C132.537 15.4087 131.664 16.7017 130.257 17.3557L133.006 21.2647H129.3ZM133.908 9.73871H135.384L138.569 19.0665L141.621 9.73796H143.08L146.13 19.0665L149.316 9.73796H150.792L146.851 21.264H145.561L142.359 11.4495L139.139 21.264H137.848L133.908 9.73871ZM159.74 17.406L157.074 11.349L154.391 17.406H159.739H159.74ZM160.276 18.648H153.854L152.697 21.264H151.273L156.353 9.73796H157.777L160.276 15.408L160.457 15.819L161.158 17.406H159.74H161.158L162.858 21.264H161.433L160.277 18.648H160.276Z" fill="#231449"/>
<mask id="mask0_540_3211" style="mask-type:alpha" maskUnits="userSpaceOnUse" x="163" y="9" width="11" height="13">
<path d="M163.098 9.73682H173.744V21.2628H163.098V9.73682Z" fill="white"/>
</mask>
<g mask="url(#mask0_540_3211)">
<path fill-rule="evenodd" clip-rule="evenodd" d="M167.742 16.5648L163.098 9.73682H164.724L168.43 15.3228L172.168 9.73682H173.744L169.116 16.5648V21.2628H167.742V16.5648Z" fill="#231449"/>
</g>
<path d="M46 1L46 31" stroke="#BBC2D4" stroke-linecap="square"/>
<g filter="url(#filter0_d_540_3211)">
<path d="M14.9928 29.5685C22.477 29.5685 28.5441 23.5014 28.5441 16.0172C28.5441 8.53296 22.477 2.46582 14.9928 2.46582C7.50855 2.46582 1.44141 8.53296 1.44141 16.0172C1.44141 23.5014 7.50855 29.5685 14.9928 29.5685Z" fill="black"/>
</g>
<path d="M14.9928 29.5685C22.477 29.5685 28.5441 23.5014 28.5441 16.0172C28.5441 8.53296 22.477 2.46582 14.9928 2.46582C7.50855 2.46582 1.44141 8.53296 1.44141 16.0172C1.44141 23.5014 7.50855 29.5685 14.9928 29.5685Z" fill="white" stroke="#3B7AB4" stroke-width="0.293399"/>
<path fill-rule="evenodd" clip-rule="evenodd" d="M11.6293 28.2515L11.4342 27.7439L11.245 28.2515H11.6293ZM11.3858 27.6265H11.4811L11.8626 28.6167L11.7731 28.6314L11.6557 28.3248H11.22L11.11 28.6241H11.0234L11.3858 27.6265ZM12.42 28.517L12.4494 28.583C12.4298 28.5947 12.4063 28.6052 12.3789 28.6145C12.3516 28.6238 12.3242 28.6309 12.2968 28.6358C12.2694 28.6407 12.2454 28.6431 12.2249 28.6431C12.1555 28.6431 12.0958 28.627 12.0459 28.5947C11.9961 28.5625 11.9579 28.5177 11.9315 28.4605C11.9051 28.4033 11.8919 28.338 11.8919 28.2647C11.8929 28.1933 11.9073 28.1297 11.9352 28.074C11.963 28.0182 12.0027 27.9742 12.054 27.9419C12.1053 27.9097 12.1657 27.8935 12.2352 27.8935C12.2547 27.8935 12.2782 27.8962 12.3056 27.9016C12.333 27.907 12.3604 27.9141 12.3877 27.9229C12.4151 27.9317 12.4381 27.9424 12.4567 27.9551L12.4273 28.0197C12.4029 28.0079 12.3767 27.9967 12.3489 27.9859C12.321 27.9752 12.2816 27.9698 12.2308 27.9698C12.1789 27.9698 12.1347 27.9828 12.098 28.0087C12.0613 28.0346 12.0335 28.0696 12.0144 28.1136C11.9953 28.1576 11.9853 28.2075 11.9843 28.2632C11.9843 28.3209 11.9931 28.3727 12.0107 28.4187C12.0283 28.4647 12.055 28.5008 12.0907 28.5273C12.1264 28.5537 12.1706 28.5669 12.2234 28.5669C12.2753 28.5669 12.3146 28.5617 12.3415 28.5515C12.3684 28.5412 12.3946 28.5297 12.42 28.517ZM13.045 28.517L13.0743 28.583C13.0547 28.5947 13.0313 28.6052 13.0039 28.6145C12.9765 28.6238 12.9491 28.6309 12.9217 28.6358C12.8943 28.6407 12.8704 28.6431 12.8498 28.6431C12.7804 28.6431 12.7207 28.627 12.6709 28.5947C12.621 28.5625 12.5829 28.5177 12.5564 28.4605C12.53 28.4033 12.5168 28.338 12.5168 28.2647C12.5178 28.1933 12.5322 28.1297 12.5601 28.074C12.588 28.0182 12.6276 27.9742 12.6789 27.9419C12.7303 27.9097 12.7907 27.8935 12.8601 27.8935C12.8797 27.8935 12.9031 27.8962 12.9305 27.9016C12.9579 27.907 12.9853 27.9141 13.0127 27.9229C13.0401 27.9317 13.063 27.9424 13.0816 27.9551L13.0523 28.0197C13.0278 28.0079 13.0017 27.9967 12.9738 27.9859C12.9459 27.9752 12.9066 27.9698 12.8557 27.9698C12.8039 27.9698 12.7596 27.9828 12.7229 28.0087C12.6863 28.0346 12.6584 28.0696 12.6393 28.1136C12.6203 28.1576 12.6102 28.2075 12.6093 28.2632C12.6093 28.3209 12.6181 28.3727 12.6357 28.4187C12.6533 28.4647 12.6799 28.5008 12.7156 28.5273C12.7513 28.5537 12.7956 28.5669 12.8484 28.5669C12.9002 28.5669 12.9396 28.5617 12.9665 28.5515C12.9934 28.5412 13.0195 28.5297 13.045 28.517ZM13.7623 28.2735H13.2342C13.2352 28.3302 13.2442 28.3808 13.2613 28.4253C13.2784 28.4698 13.3063 28.505 13.345 28.5309C13.3836 28.5568 13.4347 28.5698 13.4983 28.5698C13.5393 28.5698 13.5777 28.5642 13.6134 28.5529C13.6491 28.5417 13.6851 28.5268 13.7212 28.5082L13.752 28.5757C13.7295 28.5874 13.7061 28.5984 13.6816 28.6087C13.6572 28.6189 13.6305 28.6273 13.6017 28.6336C13.5728 28.64 13.5398 28.6431 13.5027 28.6431C13.4205 28.6431 13.3528 28.627 13.2995 28.5947C13.2462 28.5625 13.2066 28.5177 13.1807 28.4605C13.1547 28.4033 13.1418 28.338 13.1418 28.2647C13.1428 28.1933 13.1555 28.1297 13.1799 28.074C13.2044 28.0182 13.2406 27.9742 13.2885 27.9419C13.3364 27.9097 13.3951 27.8935 13.4645 27.8935C13.534 27.8935 13.5904 27.9097 13.634 27.9419C13.6775 27.9742 13.7097 28.0185 13.7308 28.0747C13.7518 28.1309 13.7623 28.1947 13.7623 28.2661V28.2735ZM13.2371 28.2104H13.6699C13.666 28.1634 13.6564 28.1219 13.6413 28.0857C13.6261 28.0495 13.6039 28.0211 13.5745 28.0006C13.5452 27.9801 13.5071 27.9698 13.4601 27.9698C13.4132 27.9698 13.374 27.9801 13.3428 28.0006C13.3115 28.0211 13.2873 28.0495 13.2701 28.0857C13.253 28.1219 13.242 28.1634 13.2371 28.2104ZM13.8371 28.5874L13.8665 28.5199C13.8841 28.5287 13.9031 28.5368 13.9237 28.5441C13.9442 28.5515 13.9662 28.5576 13.9897 28.5625C14.0132 28.5674 14.0371 28.5698 14.0616 28.5698C14.1007 28.5698 14.1347 28.5654 14.1635 28.5566C14.1924 28.5478 14.2149 28.5343 14.231 28.5163C14.2472 28.4982 14.2552 28.4759 14.2552 28.4495C14.2552 28.426 14.2462 28.405 14.2281 28.3864C14.21 28.3678 14.1863 28.3512 14.1569 28.3365C14.1276 28.3219 14.0958 28.3087 14.0616 28.2969C14.0244 28.2842 13.9882 28.2691 13.953 28.2515C13.9178 28.2339 13.8887 28.2119 13.8657 28.1854C13.8428 28.159 13.8313 28.1273 13.8313 28.0901C13.8313 28.0285 13.8547 27.9803 13.9017 27.9456C13.9486 27.9109 14.0122 27.8935 14.0924 27.8935C14.1129 27.8935 14.1366 27.896 14.1635 27.9008C14.1904 27.9057 14.2171 27.9126 14.2435 27.9214C14.2699 27.9302 14.2909 27.9405 14.3066 27.9522L14.2772 28.0167C14.2577 28.007 14.2325 27.9962 14.2017 27.9845C14.1709 27.9727 14.1335 27.9669 14.0895 27.9669C14.0396 27.9669 13.9985 27.9779 13.9662 27.9999C13.934 28.0219 13.9178 28.05 13.9178 28.0842C13.9188 28.1175 13.9374 28.1446 13.9736 28.1656C14.0097 28.1867 14.0528 28.2055 14.1027 28.2221C14.1418 28.2358 14.1794 28.2527 14.2156 28.2727C14.2518 28.2928 14.2816 28.3165 14.3051 28.3439C14.3286 28.3713 14.3403 28.404 14.3403 28.4422C14.3403 28.5048 14.3161 28.5539 14.2677 28.5896C14.2193 28.6253 14.1496 28.6431 14.0586 28.6431C14.0391 28.6431 14.0154 28.6409 13.9875 28.6365C13.9596 28.6321 13.9322 28.6258 13.9053 28.6175C13.8784 28.6092 13.8557 28.5991 13.8371 28.5874ZM14.4151 28.5874L14.4445 28.5199C14.4621 28.5287 14.4811 28.5368 14.5017 28.5441C14.5222 28.5515 14.5442 28.5576 14.5677 28.5625C14.5912 28.5674 14.6151 28.5698 14.6396 28.5698C14.6787 28.5698 14.7127 28.5654 14.7415 28.5566C14.7704 28.5478 14.7929 28.5343 14.809 28.5163C14.8251 28.4982 14.8332 28.4759 14.8332 28.4495C14.8332 28.426 14.8242 28.405 14.8061 28.3864C14.788 28.3678 14.7643 28.3512 14.7349 28.3365C14.7056 28.3219 14.6738 28.3087 14.6396 28.2969C14.6024 28.2842 14.5662 28.2691 14.531 28.2515C14.4958 28.2339 14.4667 28.2119 14.4437 28.1854C14.4207 28.159 14.4093 28.1273 14.4093 28.0901C14.4093 28.0285 14.4327 27.9803 14.4797 27.9456C14.5266 27.9109 14.5902 27.8935 14.6704 27.8935C14.6909 27.8935 14.7146 27.896 14.7415 27.9008C14.7684 27.9057 14.7951 27.9126 14.8215 27.9214C14.8479 27.9302 14.8689 27.9405 14.8846 27.9522L14.8552 28.0167C14.8357 28.007 14.8105 27.9962 14.7797 27.9845C14.7489 27.9727 14.7115 27.9669 14.6674 27.9669C14.6176 27.9669 14.5765 27.9779 14.5442 27.9999C14.5119 28.0219 14.4958 28.05 14.4958 28.0842C14.4968 28.1175 14.5154 28.1446 14.5516 28.1656C14.5877 28.1867 14.6308 28.2055 14.6807 28.2221C14.7198 28.2358 14.7574 28.2527 14.7936 28.2727C14.8298 28.2928 14.8596 28.3165 14.8831 28.3439C14.9066 28.3713 14.9183 28.404 14.9183 28.4422C14.9183 28.5048 14.8941 28.5539 14.8457 28.5896C14.7973 28.6253 14.7276 28.6431 14.6366 28.6431C14.6171 28.6431 14.5934 28.6409 14.5655 28.6365C14.5376 28.6321 14.5102 28.6258 14.4833 28.6175C14.4564 28.6092 14.4337 28.5991 14.4151 28.5874ZM15.1207 28.6241H15.0283V27.9126H15.1207V28.6241ZM15.0738 27.7571C15.0533 27.7571 15.0366 27.7505 15.0239 27.7373C15.0112 27.7241 15.0049 27.7077 15.0049 27.6881C15.0049 27.6686 15.0112 27.6522 15.0239 27.639C15.0366 27.6258 15.0533 27.6192 15.0738 27.6192C15.0924 27.6192 15.1088 27.6258 15.1229 27.639C15.1371 27.6522 15.1442 27.6686 15.1442 27.6881C15.1442 27.7077 15.1371 27.7241 15.1229 27.7373C15.1088 27.7505 15.0924 27.7571 15.0738 27.7571ZM15.3496 28.6241H15.2895V27.603L15.3804 27.5884V28.5258L15.3496 28.6241ZM15.3628 28.0725L15.3335 28.0065C15.353 27.984 15.375 27.9642 15.3995 27.9471C15.4239 27.9299 15.4503 27.9167 15.4787 27.9075C15.5071 27.8982 15.5364 27.8935 15.5667 27.8935C15.6371 27.8935 15.6963 27.9094 15.7442 27.9412C15.7921 27.973 15.8286 28.017 15.8535 28.0732C15.8785 28.1295 15.8909 28.1947 15.8909 28.2691C15.8909 28.3395 15.878 28.403 15.852 28.4598C15.8261 28.5165 15.7887 28.5612 15.7398 28.594C15.6909 28.6268 15.6313 28.6431 15.5608 28.6431C15.5286 28.6431 15.4987 28.6375 15.4714 28.6263C15.444 28.615 15.4188 28.6008 15.3958 28.5837C15.3728 28.5666 15.3516 28.5493 15.332 28.5317L15.3613 28.473C15.3858 28.4955 15.4132 28.5167 15.4435 28.5368C15.4738 28.5568 15.5144 28.5669 15.5652 28.5669C15.6181 28.5669 15.6616 28.5537 15.6958 28.5273C15.73 28.5008 15.7557 28.4652 15.7728 28.4202C15.7899 28.3752 15.7985 28.3253 15.7985 28.2705C15.7985 28.2118 15.7904 28.16 15.7743 28.115C15.7582 28.07 15.7332 28.0346 15.6995 28.0087C15.6657 27.9828 15.622 27.9698 15.5682 27.9698C15.5212 27.9698 15.4816 27.9796 15.4494 27.9991C15.4171 28.0187 15.3882 28.0431 15.3628 28.0725ZM16.1066 28.6241H16.0156V27.603L16.1066 27.5884V28.6241ZM16.8518 28.2735H16.3237C16.3247 28.3302 16.3337 28.3808 16.3508 28.4253C16.3679 28.4698 16.3958 28.505 16.4344 28.5309C16.4731 28.5568 16.5242 28.5698 16.5877 28.5698C16.6288 28.5698 16.6672 28.5642 16.7029 28.5529C16.7386 28.5417 16.7745 28.5268 16.8107 28.5082L16.8415 28.5757C16.819 28.5874 16.7956 28.5984 16.7711 28.6087C16.7467 28.6189 16.72 28.6273 16.6912 28.6336C16.6623 28.64 16.6293 28.6431 16.5921 28.6431C16.51 28.6431 16.4423 28.627 16.389 28.5947C16.3357 28.5625 16.2961 28.5177 16.2701 28.4605C16.2442 28.4033 16.2313 28.338 16.2313 28.2647C16.2322 28.1933 16.245 28.1297 16.2694 28.074C16.2939 28.0182 16.33 27.9742 16.378 27.9419C16.4259 27.9097 16.4846 27.8935 16.554 27.8935C16.6234 27.8935 16.6799 27.9097 16.7234 27.9419C16.767 27.9742 16.7992 28.0185 16.8203 28.0747C16.8413 28.1309 16.8518 28.1947 16.8518 28.2661V28.2735ZM16.3266 28.2104H16.7594C16.7555 28.1634 16.7459 28.1219 16.7308 28.0857C16.7156 28.0495 16.6934 28.0211 16.664 28.0006C16.6347 27.9801 16.5965 27.9698 16.5496 27.9698C16.5027 27.9698 16.4635 27.9801 16.4322 28.0006C16.4009 28.0211 16.3767 28.0495 16.3596 28.0857C16.3425 28.1219 16.3315 28.1634 16.3266 28.2104ZM18.1853 27.6265L17.8919 28.6241H17.7467L17.5325 27.8612L17.3227 28.6241H17.1789L16.8811 27.6368L17.0454 27.6133L17.2538 28.3996L17.4533 27.6265H17.6176L17.8215 28.3996L18.021 27.6265H18.1853ZM18.4552 28.6241H18.2924V27.6265H18.5902C18.6616 27.6265 18.7266 27.637 18.7853 27.6581C18.844 27.6791 18.8904 27.7128 18.9247 27.7593C18.9589 27.8057 18.976 27.8666 18.976 27.9419C18.976 27.9977 18.9652 28.0461 18.9437 28.0872C18.9222 28.1282 18.8926 28.162 18.855 28.1884C18.8173 28.2148 18.7745 28.2343 18.7266 28.2471C18.6787 28.2598 18.6288 28.2661 18.577 28.2661H18.4552V28.6241ZM18.5858 27.7644H18.4552V28.1297H18.5843C18.6264 28.1297 18.6635 28.1236 18.6958 28.1114C18.7281 28.0991 18.7535 28.0796 18.7721 28.0527C18.7907 28.0258 18.8014 27.9918 18.8044 27.9507C18.8044 27.9038 18.7953 27.8669 18.7772 27.84C18.7591 27.8131 18.7342 27.7938 18.7024 27.782C18.6706 27.7703 18.6318 27.7644 18.5858 27.7644Z" fill="#3B7AB4"/>
<g filter="url(#filter1_d_540_3211)">
<path d="M14.9818 27.2586C8.76356 27.2586 3.72266 22.2177 3.72266 15.9994C3.72266 9.78114 8.76356 4.74023 14.9818 4.74023C21.2001 4.74023 26.241 9.78114 26.241 15.9994C26.241 22.2177 21.2001 27.2586 14.9818 27.2586ZM14.9269 8.14545C14.0398 8.14545 13.3042 8.86888 13.3042 9.76507C13.3042 10.6613 14.0398 11.3955 14.9269 11.3955C15.8248 11.3955 16.5496 10.6613 16.5496 9.76507C16.5496 8.86888 15.8248 8.14545 14.9269 8.14545ZM7.78694 13.2851C7.78694 13.9869 12.6335 14.7967 12.6335 14.7967C12.6335 14.7967 10.8052 23.5859 11.4867 23.845C12.1575 24.1042 14.9269 18.2411 14.9269 18.2411C14.9269 18.2411 17.7072 24.1042 18.3779 23.845C19.0594 23.5859 17.2312 14.7967 17.2312 14.7967C17.2312 14.7967 22.0669 13.9869 22.0669 13.2851C22.0669 12.5832 14.9269 12.4644 14.9269 12.4644C14.9269 12.4644 7.78694 12.5832 7.78694 13.2851Z" fill="black"/>
</g>
<path d="M14.9818 27.2586C8.76356 27.2586 3.72266 22.2177 3.72266 15.9994C3.72266 9.78114 8.76356 4.74023 14.9818 4.74023C21.2001 4.74023 26.241 9.78114 26.241 15.9994C26.241 22.2177 21.2001 27.2586 14.9818 27.2586ZM14.9269 8.14545C14.0398 8.14545 13.3042 8.86888 13.3042 9.76507C13.3042 10.6613 14.0398 11.3955 14.9269 11.3955C15.8248 11.3955 16.5496 10.6613 16.5496 9.76507C16.5496 8.86888 15.8248 8.14545 14.9269 8.14545ZM7.78694 13.2851C7.78694 13.9869 12.6335 14.7967 12.6335 14.7967C12.6335 14.7967 10.8052 23.5859 11.4867 23.845C12.1575 24.1042 14.9269 18.2411 14.9269 18.2411C14.9269 18.2411 17.7072 24.1042 18.3779 23.845C19.0594 23.5859 17.2312 14.7967 17.2312 14.7967C17.2312 14.7967 22.0669 13.9869 22.0669 13.2851C22.0669 12.5832 14.9269 12.4644 14.9269 12.4644C14.9269 12.4644 7.78694 12.5832 7.78694 13.2851Z" fill="#3B7AB4"/>
<defs>
<filter id="filter0_d_540_3211" x="1.07466" y="2.17242" width="28.2763" height="28.2763" filterUnits="userSpaceOnUse" color-interpolation-filters="sRGB">
<feFlood flood-opacity="0" result="BackgroundImageFix"/>
<feColorMatrix in="SourceAlpha" type="matrix" values="0 0 0 0 0 0 0 0 0 0 0 0 0 0 0 0 0 0 127 0" result="hardAlpha"/>
<feOffset dx="0.220049" dy="0.293399"/>
<feGaussianBlur stdDeviation="0.293399"/>
<feComposite in2="hardAlpha" operator="out"/>
<feColorMatrix type="matrix" values="0 0 0 0 0 0 0 0 0 0 0 0 0 0 0 0 0 0 0.18 0"/>
<feBlend mode="normal" in2="BackgroundImageFix" result="effect1_dropShadow_540_3211"/>
<feBlend mode="normal" in="SourceGraphic" in2="effect1_dropShadow_540_3211" result="shape"/>
</filter>
<filter id="filter1_d_540_3211" x="3.35591" y="4.44684" width="23.6919" height="23.6919" filterUnits="userSpaceOnUse" color-interpolation-filters="sRGB">
<feFlood flood-opacity="0" result="BackgroundImageFix"/>
<feColorMatrix in="SourceAlpha" type="matrix" values="0 0 0 0 0 0 0 0 0 0 0 0 0 0 0 0 0 0 127 0" result="hardAlpha"/>
<feOffset dx="0.220049" dy="0.293399"/>
<feGaussianBlur stdDeviation="0.293399"/>
<feColorMatrix type="matrix" values="0 0 0 0 0 0 0 0 0 0 0 0 0 0 0 0 0 0 0.08 0"/>
<feBlend mode="normal" in2="BackgroundImageFix" result="effect1_dropShadow_540_3211"/>
<feBlend mode="normal" in="SourceGraphic" in2="effect1_dropShadow_540_3211" result="shape"/>
</filter>
<linearGradient id="paint0_linear_540_3211" x1="63.8133" y1="9.75112" x2="75.0962" y2="25.1716" gradientUnits="userSpaceOnUse">
<stop stop-color="#6A67F5"/>
<stop offset="1" stop-color="#3F3CAE"/>
</linearGradient>
<linearGradient id="paint1_linear_540_3211" x1="66.9769" y1="7.39" x2="78.319" y2="22.8632" gradientUnits="userSpaceOnUse">
<stop stop-color="#03BCFF"/>
<stop offset="0.51" stop-color="#024FFF"/>
<stop offset="1" stop-color="#F900FF"/>
</linearGradient>
</defs>
</svg>
