<svg width="50" height="50" viewBox="0 0 50 50" fill="none" xmlns="http://www.w3.org/2000/svg">
<g id="icon 3">
<g id="Artboard-Copy-2">
<g id="Group-2">
<g id="Oval">
<g id="Vector" filter="url(#filter0_d_540_2991)">
<path d="M25.0075 47.6163C37.4811 47.6163 47.593 37.5044 47.593 25.0308C47.593 12.5571 37.4811 2.44519 25.0075 2.44519C12.5338 2.44519 2.42188 12.5571 2.42188 25.0308C2.42188 37.5044 12.5338 47.6163 25.0075 47.6163Z" fill="black"/>
</g>
<path id="Vector_2" d="M25.0075 47.6163C37.4811 47.6163 47.593 37.5044 47.593 25.0308C47.593 12.5571 37.4811 2.44519 25.0075 2.44519C12.5338 2.44519 2.42188 12.5571 2.42188 25.0308C2.42188 37.5044 12.5338 47.6163 25.0075 47.6163Z" fill="white" stroke="#B91E1E" stroke-width="0.488998"/>
</g>
<path id="AccessibleWP" fill-rule="evenodd" clip-rule="evenodd" d="M19.3926 45.4207L19.0674 44.5747L18.752 45.4207H19.3926ZM18.9867 44.3791H19.1456L19.7813 46.0295L19.6322 46.0539L19.4366 45.5429H18.7104L18.5271 46.0417H18.3828L18.9867 44.3791ZM20.7104 45.8632L20.7593 45.9733C20.7267 45.9928 20.6876 46.0103 20.642 46.0258C20.5963 46.0413 20.5507 46.0531 20.5051 46.0613C20.4594 46.0694 20.4195 46.0735 20.3853 46.0735C20.2695 46.0735 20.1701 46.0466 20.087 45.9928C20.0038 45.939 19.9403 45.8645 19.8963 45.7691C19.8523 45.6737 19.8302 45.5649 19.8302 45.4427C19.8319 45.3237 19.8559 45.2178 19.9024 45.1248C19.9488 45.0319 20.0148 44.9586 20.1004 44.9048C20.186 44.851 20.2866 44.8241 20.4024 44.8241C20.435 44.8241 20.4741 44.8286 20.5197 44.8376C20.5654 44.8465 20.611 44.8583 20.6567 44.873C20.7023 44.8877 20.7406 44.9056 20.7716 44.9268L20.7227 45.0344C20.6819 45.0148 20.6383 44.9961 20.5919 44.9781C20.5454 44.9602 20.4798 44.9513 20.395 44.9513C20.3086 44.9513 20.2349 44.9728 20.1738 45.016C20.1126 45.0592 20.0662 45.1175 20.0344 45.1909C20.0026 45.2642 19.9859 45.3473 19.9843 45.4402C19.9843 45.5364 19.999 45.6228 20.0283 45.6994C20.0576 45.776 20.102 45.8363 20.1615 45.8803C20.221 45.9244 20.2948 45.9464 20.3828 45.9464C20.4692 45.9464 20.5348 45.9378 20.5796 45.9207C20.6245 45.9036 20.6681 45.8844 20.7104 45.8632ZM21.752 45.8632L21.8009 45.9733C21.7683 45.9928 21.7292 46.0103 21.6835 46.0258C21.6379 46.0413 21.5923 46.0531 21.5466 46.0613C21.501 46.0694 21.4611 46.0735 21.4268 46.0735C21.3111 46.0735 21.2117 46.0466 21.1285 45.9928C21.0454 45.939 20.9818 45.8645 20.9378 45.7691C20.8938 45.6737 20.8718 45.5649 20.8718 45.4427C20.8734 45.3237 20.8975 45.2178 20.9439 45.1248C20.9904 45.0319 21.0564 44.9586 21.142 44.9048C21.2276 44.851 21.3282 44.8241 21.4439 44.8241C21.4765 44.8241 21.5157 44.8286 21.5613 44.8376C21.6069 44.8465 21.6526 44.8583 21.6982 44.873C21.7439 44.8877 21.7822 44.9056 21.8131 44.9268L21.7642 45.0344C21.7235 45.0148 21.6799 44.9961 21.6334 44.9781C21.587 44.9602 21.5214 44.9513 21.4366 44.9513C21.3502 44.9513 21.2765 44.9728 21.2153 45.016C21.1542 45.0592 21.1078 45.1175 21.076 45.1909C21.0442 45.2642 21.0275 45.3473 21.0258 45.4402C21.0258 45.5364 21.0405 45.6228 21.0699 45.6994C21.0992 45.776 21.1436 45.8363 21.2031 45.8803C21.2626 45.9244 21.3364 45.9464 21.4244 45.9464C21.5108 45.9464 21.5764 45.9378 21.6212 45.9207C21.666 45.9036 21.7096 45.8844 21.752 45.8632ZM22.9476 45.4574H22.0674C22.069 45.5519 22.0841 45.6363 22.1126 45.7104C22.1412 45.7846 22.1876 45.8433 22.252 45.8865C22.3164 45.9297 22.4016 45.9512 22.5075 45.9512C22.576 45.9512 22.6399 45.9419 22.6994 45.9231C22.7589 45.9044 22.8188 45.8795 22.8791 45.8486L22.9305 45.961C22.893 45.9806 22.8539 45.9989 22.8131 46.016C22.7724 46.0332 22.728 46.047 22.6799 46.0576C22.6318 46.0682 22.5768 46.0735 22.5148 46.0735C22.3779 46.0735 22.265 46.0466 22.1762 45.9928C22.0874 45.939 22.0214 45.8645 21.9782 45.7691C21.935 45.6737 21.9134 45.5649 21.9134 45.4427C21.915 45.3237 21.9362 45.2178 21.9769 45.1248C22.0177 45.0319 22.078 44.9586 22.1579 44.9048C22.2377 44.851 22.3355 44.8241 22.4513 44.8241C22.567 44.8241 22.6611 44.851 22.7337 44.9048C22.8062 44.9586 22.86 45.0323 22.895 45.1261C22.9301 45.2198 22.9476 45.3261 22.9476 45.4451V45.4574ZM22.0723 45.3522H22.7936C22.7871 45.274 22.7712 45.2047 22.7459 45.1444C22.7206 45.0841 22.6835 45.0368 22.6346 45.0026C22.5857 44.9684 22.5222 44.9513 22.4439 44.9513C22.3657 44.9513 22.3005 44.9684 22.2483 45.0026C22.1962 45.0368 22.1558 45.0841 22.1273 45.1444C22.0988 45.2047 22.0804 45.274 22.0723 45.3522ZM23.0723 45.9806L23.1212 45.8681C23.1505 45.8828 23.1823 45.8962 23.2166 45.9085C23.2508 45.9207 23.2875 45.9309 23.3266 45.939C23.3657 45.9472 23.4056 45.9512 23.4464 45.9512C23.5116 45.9512 23.5682 45.9439 23.6163 45.9292C23.6644 45.9146 23.7019 45.8922 23.7288 45.862C23.7557 45.8319 23.7691 45.7948 23.7691 45.7508C23.7691 45.7116 23.754 45.6766 23.7239 45.6456C23.6937 45.6147 23.6542 45.5869 23.6053 45.5625C23.5564 45.538 23.5034 45.516 23.4464 45.4965C23.3844 45.4753 23.3241 45.45 23.2655 45.4207C23.2068 45.3913 23.1583 45.3547 23.12 45.3107C23.0817 45.2667 23.0625 45.2137 23.0625 45.1517C23.0625 45.049 23.1016 44.9688 23.1799 44.9109C23.2581 44.853 23.3641 44.8241 23.4977 44.8241C23.532 44.8241 23.5715 44.8282 23.6163 44.8363C23.6611 44.8445 23.7056 44.8559 23.7496 44.8706C23.7936 44.8852 23.8286 44.9023 23.8547 44.9219L23.8058 45.0295C23.7732 45.0132 23.7312 44.9953 23.6799 44.9757C23.6285 44.9561 23.5662 44.9464 23.4928 44.9464C23.4097 44.9464 23.3412 44.9647 23.2875 45.0014C23.2337 45.038 23.2068 45.0849 23.2068 45.142C23.2084 45.1974 23.2394 45.2426 23.2997 45.2777C23.36 45.3127 23.4317 45.3441 23.5148 45.3718C23.58 45.3946 23.6428 45.4227 23.7031 45.4561C23.7634 45.4896 23.8131 45.5291 23.8523 45.5747C23.8914 45.6204 23.9109 45.675 23.9109 45.7385C23.9109 45.8429 23.8706 45.9248 23.7899 45.9843C23.7092 46.0438 23.5931 46.0735 23.4415 46.0735C23.4089 46.0735 23.3694 46.0698 23.3229 46.0625C23.2765 46.0552 23.2308 46.0446 23.186 46.0307C23.1412 46.0169 23.1033 46.0001 23.0723 45.9806ZM24.0356 45.9806L24.0845 45.8681C24.1139 45.8828 24.1456 45.8962 24.1799 45.9085C24.2141 45.9207 24.2508 45.9309 24.2899 45.939C24.329 45.9472 24.369 45.9512 24.4097 45.9512C24.4749 45.9512 24.5315 45.9439 24.5796 45.9292C24.6277 45.9146 24.6652 45.8922 24.6921 45.862C24.719 45.8319 24.7324 45.7948 24.7324 45.7508C24.7324 45.7116 24.7174 45.6766 24.6872 45.6456C24.6571 45.6147 24.6175 45.5869 24.5686 45.5625C24.5197 45.538 24.4668 45.516 24.4097 45.4965C24.3478 45.4753 24.2875 45.45 24.2288 45.4207C24.1701 45.3913 24.1216 45.3547 24.0833 45.3107C24.045 45.2667 24.0258 45.2137 24.0258 45.1517C24.0258 45.049 24.065 44.9688 24.1432 44.9109C24.2214 44.853 24.3274 44.8241 24.4611 44.8241C24.4953 44.8241 24.5348 44.8282 24.5796 44.8363C24.6245 44.8445 24.6689 44.8559 24.7129 44.8706C24.7569 44.8852 24.7919 44.9023 24.818 44.9219L24.7691 45.0295C24.7365 45.0132 24.6946 44.9953 24.6432 44.9757C24.5919 44.9561 24.5295 44.9464 24.4562 44.9464C24.373 44.9464 24.3046 44.9647 24.2508 45.0014C24.197 45.038 24.1701 45.0849 24.1701 45.142C24.1717 45.1974 24.2027 45.2426 24.263 45.2777C24.3233 45.3127 24.395 45.3441 24.4782 45.3718C24.5434 45.3946 24.6061 45.4227 24.6664 45.4561C24.7267 45.4896 24.7765 45.5291 24.8156 45.5747C24.8547 45.6204 24.8743 45.675 24.8743 45.7385C24.8743 45.8429 24.8339 45.9248 24.7532 45.9843C24.6725 46.0438 24.5564 46.0735 24.4048 46.0735C24.3722 46.0735 24.3327 46.0698 24.2862 46.0625C24.2398 46.0552 24.1941 46.0446 24.1493 46.0307C24.1045 46.0169 24.0666 46.0001 24.0356 45.9806ZM25.2117 46.0417H25.0576V44.8559H25.2117V46.0417ZM25.1334 44.5967C25.0992 44.5967 25.0715 44.5857 25.0503 44.5637C25.0291 44.5417 25.0185 44.5144 25.0185 44.4818C25.0185 44.4492 25.0291 44.4219 25.0503 44.3999C25.0715 44.3779 25.0992 44.3669 25.1334 44.3669C25.1644 44.3669 25.1917 44.3779 25.2153 44.3999C25.239 44.4219 25.2508 44.4492 25.2508 44.4818C25.2508 44.5144 25.239 44.5417 25.2153 44.5637C25.1917 44.5857 25.1644 44.5967 25.1334 44.5967ZM25.5931 46.0417H25.4928V44.34L25.6444 44.3156V45.8779L25.5931 46.0417ZM25.6151 45.1224L25.5662 45.0124C25.5988 44.9749 25.6355 44.9419 25.6762 44.9134C25.717 44.8848 25.761 44.8628 25.8082 44.8473C25.8555 44.8319 25.9044 44.8241 25.9549 44.8241C26.0723 44.8241 26.1709 44.8506 26.2508 44.9036C26.3307 44.9565 26.3914 45.0299 26.4329 45.1236C26.4745 45.2173 26.4953 45.3261 26.4953 45.45C26.4953 45.5674 26.4737 45.6733 26.4305 45.7679C26.3873 45.8624 26.3249 45.937 26.2434 45.9916C26.1619 46.0462 26.0625 46.0735 25.9452 46.0735C25.8914 46.0735 25.8417 46.0641 25.796 46.0454C25.7504 46.0266 25.7084 46.003 25.6701 45.9745C25.6318 45.946 25.5963 45.917 25.5637 45.8877L25.6126 45.7899C25.6534 45.8274 25.699 45.8628 25.7496 45.8962C25.8001 45.9297 25.8677 45.9464 25.9525 45.9464C26.0405 45.9464 26.113 45.9244 26.1701 45.8803C26.2271 45.8363 26.2699 45.7768 26.2985 45.7019C26.327 45.6269 26.3412 45.5437 26.3412 45.4525C26.3412 45.3547 26.3278 45.2683 26.3009 45.1933C26.274 45.1183 26.2324 45.0592 26.1762 45.016C26.12 44.9728 26.047 44.9513 25.9574 44.9513C25.8791 44.9513 25.8131 44.9675 25.7593 45.0001C25.7056 45.0327 25.6575 45.0735 25.6151 45.1224ZM26.8547 46.0417H26.7031V44.34L26.8547 44.3156V46.0417ZM28.0968 45.4574H27.2166C27.2182 45.5519 27.2333 45.6363 27.2618 45.7104C27.2903 45.7846 27.3368 45.8433 27.4012 45.8865C27.4655 45.9297 27.5507 45.9512 27.6567 45.9512C27.7251 45.9512 27.7891 45.9419 27.8486 45.9231C27.9081 45.9044 27.968 45.8795 28.0283 45.8486L28.0796 45.961C28.0421 45.9806 28.003 45.9989 27.9623 46.016C27.9215 46.0332 27.8771 46.047 27.829 46.0576C27.7809 46.0682 27.7259 46.0735 27.664 46.0735C27.5271 46.0735 27.4142 46.0466 27.3254 45.9928C27.2365 45.939 27.1705 45.8645 27.1273 45.7691C27.0841 45.6737 27.0625 45.5649 27.0625 45.4427C27.0641 45.3237 27.0853 45.2178 27.1261 45.1248C27.1668 45.0319 27.2271 44.9586 27.307 44.9048C27.3869 44.851 27.4847 44.8241 27.6004 44.8241C27.7161 44.8241 27.8103 44.851 27.8828 44.9048C27.9553 44.9586 28.0091 45.0323 28.0442 45.1261C28.0792 45.2198 28.0968 45.3261 28.0968 45.4451V45.4574ZM27.2214 45.3522H27.9427C27.9362 45.274 27.9203 45.2047 27.895 45.1444C27.8698 45.0841 27.8327 45.0368 27.7838 45.0026C27.7349 44.9684 27.6713 44.9513 27.5931 44.9513C27.5148 44.9513 27.4496 44.9684 27.3975 45.0026C27.3453 45.0368 27.305 45.0841 27.2765 45.1444C27.2479 45.2047 27.2296 45.274 27.2214 45.3522ZM30.3192 44.3791L29.8302 46.0417H29.5882L29.2312 44.7703L28.8816 46.0417H28.642L28.1456 44.3962L28.4195 44.3571L28.7667 45.6676L29.0992 44.3791H29.373L29.7129 45.6676L30.0454 44.3791H30.3192ZM30.7691 46.0417H30.4977V44.3791H30.9941C31.1131 44.3791 31.2214 44.3966 31.3192 44.4317C31.417 44.4667 31.4945 44.523 31.5515 44.6004C31.6086 44.6778 31.6371 44.7793 31.6371 44.9048C31.6371 44.9977 31.6192 45.0784 31.5833 45.1468C31.5474 45.2153 31.4981 45.2715 31.4354 45.3156C31.3726 45.3596 31.3013 45.3922 31.2214 45.4134C31.1416 45.4345 31.0584 45.4451 30.9721 45.4451H30.7691V46.0417ZM30.9867 44.6089H30.7691V45.2178H30.9843C31.0544 45.2178 31.1163 45.2076 31.1701 45.1872C31.2239 45.1668 31.2663 45.1342 31.2972 45.0894C31.3282 45.0446 31.3461 44.9879 31.351 44.9195C31.351 44.8412 31.336 44.7797 31.3058 44.7349C31.2756 44.69 31.2341 44.6579 31.1811 44.6383C31.1281 44.6187 31.0633 44.6089 30.9867 44.6089Z" fill="#B91E1E"/>
<g id="Group">
<g id="Combined-Shape">
<g id="Vector_3" filter="url(#filter1_d_540_2991)">
<path d="M24.9879 43.7653C14.6242 43.7653 6.22266 35.3638 6.22266 25C6.22266 14.6362 14.6242 6.23474 24.9879 6.23474C35.3517 6.23474 43.7532 14.6362 43.7532 25C43.7532 35.3638 35.3517 43.7653 24.9879 43.7653ZM24.8964 11.9101C23.4179 11.9101 22.1919 13.1158 22.1919 14.6095C22.1919 16.1031 23.4179 17.3268 24.8964 17.3268C26.3929 17.3268 27.6009 16.1031 27.6009 14.6095C27.6009 13.1158 26.3929 11.9101 24.8964 11.9101ZM12.9965 20.4761C12.9965 21.6458 21.074 22.9955 21.074 22.9955C21.074 22.9955 18.0269 37.6441 19.1628 38.076C20.2807 38.5079 24.8964 28.7362 24.8964 28.7362C24.8964 28.7362 29.5302 38.5079 30.648 38.076C31.7839 37.6441 28.7368 22.9955 28.7368 22.9955C28.7368 22.9955 36.7963 21.6458 36.7963 20.4761C36.7963 19.3064 24.8964 19.1084 24.8964 19.1084C24.8964 19.1084 12.9965 19.3064 12.9965 20.4761Z" fill="black"/>
</g>
<path id="Vector_4" d="M24.9879 43.7653C14.6242 43.7653 6.22266 35.3638 6.22266 25C6.22266 14.6362 14.6242 6.23474 24.9879 6.23474C35.3517 6.23474 43.7532 14.6362 43.7532 25C43.7532 35.3638 35.3517 43.7653 24.9879 43.7653ZM24.8964 11.9101C23.4179 11.9101 22.1919 13.1158 22.1919 14.6095C22.1919 16.1031 23.4179 17.3268 24.8964 17.3268C26.3929 17.3268 27.6009 16.1031 27.6009 14.6095C27.6009 13.1158 26.3929 11.9101 24.8964 11.9101ZM12.9965 20.4761C12.9965 21.6458 21.074 22.9955 21.074 22.9955C21.074 22.9955 18.0269 37.6441 19.1628 38.076C20.2807 38.5079 24.8964 28.7362 24.8964 28.7362C24.8964 28.7362 29.5302 38.5079 30.648 38.076C31.7839 37.6441 28.7368 22.9955 28.7368 22.9955C28.7368 22.9955 36.7963 21.6458 36.7963 20.4761C36.7963 19.3064 24.8964 19.1084 24.8964 19.1084C24.8964 19.1084 12.9965 19.3064 12.9965 20.4761Z" fill="#B91E1E"/>
</g>
</g>
</g>
</g>
</g>
<defs>
<filter id="filter0_d_540_2991" x="1.81063" y="1.95619" width="47.1271" height="47.1271" filterUnits="userSpaceOnUse" color-interpolation-filters="sRGB">
<feFlood flood-opacity="0" result="BackgroundImageFix"/>
<feColorMatrix in="SourceAlpha" type="matrix" values="0 0 0 0 0 0 0 0 0 0 0 0 0 0 0 0 0 0 127 0" result="hardAlpha"/>
<feOffset dx="0.366748" dy="0.488998"/>
<feGaussianBlur stdDeviation="0.488998"/>
<feComposite in2="hardAlpha" operator="out"/>
<feColorMatrix type="matrix" values="0 0 0 0 0 0 0 0 0 0 0 0 0 0 0 0 0 0 0.18 0"/>
<feBlend mode="normal" in2="BackgroundImageFix" result="effect1_dropShadow_540_2991"/>
<feBlend mode="normal" in="SourceGraphic" in2="effect1_dropShadow_540_2991" result="shape"/>
</filter>
<filter id="filter1_d_540_2991" x="5.61141" y="5.74574" width="39.4866" height="39.4865" filterUnits="userSpaceOnUse" color-interpolation-filters="sRGB">
<feFlood flood-opacity="0" result="BackgroundImageFix"/>
<feColorMatrix in="SourceAlpha" type="matrix" values="0 0 0 0 0 0 0 0 0 0 0 0 0 0 0 0 0 0 127 0" result="hardAlpha"/>
<feOffset dx="0.366748" dy="0.488998"/>
<feGaussianBlur stdDeviation="0.488998"/>
<feColorMatrix type="matrix" values="0 0 0 0 0 0 0 0 0 0 0 0 0 0 0 0 0 0 0.08 0"/>
<feBlend mode="normal" in2="BackgroundImageFix" result="effect1_dropShadow_540_2991"/>
<feBlend mode="normal" in="SourceGraphic" in2="effect1_dropShadow_540_2991" result="shape"/>
</filter>
</defs>
</svg>
