<svg width="879" height="879" viewBox="0 0 879 879" fill="none" xmlns="http://www.w3.org/2000/svg">
<rect width="879" height="879" fill="white"/>
<rect x="427" y="95" width="26" height="689" fill="#414141"/>
<circle cx="439.5" cy="240.5" r="36" fill="white" stroke="#414141" stroke-width="15"/>
<circle cx="439.5" cy="439.5" r="36" fill="white" stroke="#414141" stroke-width="15"/>
<circle cx="439.5" cy="638.5" r="36" fill="white" stroke="#414141" stroke-width="15"/>
<rect x="566" y="380" width="198" height="120" fill="#02C5BE"/>
<path d="M516 446.928C510.667 443.849 510.667 436.151 516 433.072L568.5 402.761C573.833 399.682 580.5 403.531 580.5 409.689L580.5 470.311C580.5 476.469 573.833 480.318 568.5 477.239L516 446.928Z" fill="#02C5BE"/>
<rect width="198" height="120" transform="matrix(-1 0 0 1 315 182)" fill="#F12945"/>
<path d="M365 248.928C370.333 245.849 370.333 238.151 365 235.072L312.5 204.761C307.167 201.682 300.5 205.531 300.5 211.689L300.5 272.311C300.5 278.469 307.167 282.318 312.5 279.239L365 248.928Z" fill="#F12945"/>
<rect width="198" height="120" transform="matrix(-1 0 0 1 315 580)" fill="#F12945"/>
<path d="M365 646.928C370.333 643.849 370.333 636.151 365 633.072L312.5 602.761C307.167 599.682 300.5 603.531 300.5 609.689L300.5 670.311C300.5 676.469 307.167 680.318 312.5 677.239L365 646.928Z" fill="#F12945"/>
</svg>
